Coordinates
version=1
nRows=40
nColumns=38
inDegrees=no

Units are S.I. units (second, meters, Newtons, ...)
If the header above contains a line with 'inDegrees', this indicates whether rotational values are in degrees (yes) or radians (no).

endheader
time	pelvis_tilt	pelvis_list	pelvis_rotation	pelvis_tx	pelvis_ty	pelvis_tz	hip_flexion_r	hip_adduction_r	hip_rotation_r	knee_angle_r	ankle_angle_r	subtalar_angle_r	mtp_angle_r	hip_flexion_l	hip_adduction_l	hip_rotation_l	knee_angle_l	ankle_angle_l	subtalar_angle_l	mtp_angle_l	lumbar_extension	lumbar_bending	lumbar_rotation	arm_flex_r	arm_add_r	arm_rot_r	elbow_flex_r	pro_sup_r	wrist_flex_r	wrist_dev_r	arm_flex_l	arm_add_l	arm_rot_l	elbow_flex_l	pro_sup_l	wrist_flex_l	wrist_dev_l
8.1625	-0.062967	0.0300347	-2.98563	-0.147258	0.934724	0.0248962	0.481089	-0.024366	-0.276119	0.493221	0.0595906	0	0	-0.235522	-0.0777841	-0.0237571	0.723137	0.112872	0	0	-0.198611	0.101956	-0.133344	-0.101079	-0.419886	1.3449	0.366894	0.0124861	0	0	0.63296	-0.290856	1.29022	0.770413	0.418448	0	0
8.1725	-0.0656222	0.0370139	-2.98509	-0.148873	0.935464	0.0231023	0.471896	-0.0176102	-0.282732	0.511701	0.0646977	0	0	-0.211438	-0.0955589	-0.0360838	0.782419	0.0644667	0	0	-0.200057	0.110554	-0.122632	-0.0881793	-0.413687	1.36416	0.368393	0.0116392	0	0	0.621664	-0.276462	1.32011	0.748212	0.394472	0	0
8.18249	-0.069323	0.0440574	-2.98611	-0.150161	0.936453	0.0211733	0.46011	-0.00916065	-0.287733	0.526881	0.0727079	0	0	-0.18655	-0.113112	-0.0482705	0.841858	0.0170659	0	0	-0.203311	0.118871	-0.110326	-0.0727816	-0.407518	1.38411	0.370262	0.0107124	0	0	0.60979	-0.262483	1.34852	0.725987	0.369558	0	0
8.19248	-0.0740188	0.0509664	-2.98839	-0.151111	0.9377	0.0191484	0.445714	0.000672796	-0.29114	0.538612	0.0829389	0	0	-0.161195	-0.13008	-0.059802	0.900541	-0.0279801	0	0	-0.208294	0.126717	-0.0970717	-0.0548082	-0.401341	1.40427	0.372508	0.00977026	0	0	0.597008	-0.249364	1.37418	0.704209	0.344261	0	0
8.20247	-0.0795708	0.0575183	-2.99155	-0.151724	0.939206	0.01707	0.428828	0.0114811	-0.293019	0.546853	0.0946756	0	0	-0.135604	-0.14606	-0.0701889	0.957621	-0.0692735	0	0	-0.214794	0.133885	-0.0835755	-0.0342516	-0.395085	1.42417	0.375114	0.00891593	0	0	0.583001	-0.237516	1.39605	0.683289	0.31911	0	0
8.21246	-0.0857715	0.0634945	-2.99519	-0.152013	0.940968	0.0149784	0.409674	0.022809	-0.293483	0.551659	0.107256	0	0	-0.109906	-0.160648	-0.0790146	1.01237	-0.105376	0	0	-0.222488	0.140167	-0.0705014	-0.0112095	-0.388658	1.44327	0.378033	0.00830042	0	0	0.567556	-0.227225	1.41377	0.663496	0.29427	0	0
8.22245	-0.0923622	0.0686918	-2.99896	-0.152	0.942972	0.012909	0.38856	0.0341879	-0.29269	0.55316	0.120114	0	0	-0.0841366	-0.173463	-0.0859814	1.06419	-0.134867	0	0	-0.230976	0.145372	-0.058421	0.0141238	-0.381958	1.461	0.381213	0.00813057	0	0	0.550552	-0.218667	1.42741	0.645	0.26966	0	0
8.23244	-0.0990637	0.0729411	-3.00259	-0.151712	0.945202	0.0108903	0.365834	0.0451819	-0.290833	0.551533	0.13279	0	0	-0.0582726	-0.184195	-0.0909641	1.11261	-0.15656	0	0	-0.239826	0.149343	-0.0477635	0.0414765	-0.374892	1.47682	0.384614	0.00867484	0	0	0.531944	-0.211926	1.43738	0.627905	0.245078	0	0
8.24243	-0.105609	0.0761207	-3.0059	-0.151182	0.947633	0.00894316	0.34185	0.0554286	-0.288099	0.546981	0.144936	0	0	-0.0322814	-0.192631	-0.0940332	1.15716	-0.169834	0	0	-0.248628	0.151974	-0.0387843	0.0705266	-0.367395	1.49031	0.388218	0.0102645	0	0	0.511753	-0.206999	1.4442	0.612271	0.220321	0	0
8.25242	-0.111767	0.078154	-3.00885	-0.150444	0.950238	0.00707963	0.316946	0.0646483	-0.284639	0.539743	0.15631	0	0	-0.00615672	-0.198658	-0.0954306	1.19746	-0.17483	0	0	-0.257021	0.153206	-0.0315645	0.100931	-0.359431	1.5013	0.392032	0.0132879	0	0	0.490054	-0.203823	1.44848	0.598148	0.195303	0	0
8.26241	-0.117371	0.0790084	-3.01145	-0.149537	0.952991	0.00530586	0.291412	0.0726524	-0.280555	0.530091	0.166761	0	0	0.0200448	-0.202262	-0.0955295	1.23309	-0.172433	0	0	-0.264736	0.153027	-0.0260328	0.132362	-0.350997	1.5099	0.396079	0.0181741	0	0	0.466961	-0.202285	1.4508	0.585561	0.170132	0	0
8.2724	-0.12234	0.0786995	-3.01385	-0.148496	0.955864	0.00362188	0.265462	0.0793488	-0.27589	0.518302	0.176218	0	0	0.046182	-0.203526	-0.0947812	1.26372	-0.164018	0	0	-0.271616	0.151477	-0.0220001	0.164525	-0.342131	1.51641	0.400413	0.0253625	0	0	0.442622	-0.202235	1.45168	0.5745	0.145115	0	0
8.28239	-0.126668	0.0772869	-3.01622	-0.147354	0.958828	0.00202289	0.239241	0.0847313	-0.270642	0.50466	0.184672	0	0	0.0720492	-0.202618	-0.0936643	1.28907	-0.151159	0	0	-0.277609	0.148641	-0.0192013	0.197169	-0.332906	1.52117	0.405133	0.0352535	0	0	0.417202	-0.203505	1.45158	0.564914	0.120749	0	0
8.29239	-0.130403	0.074865	-3.01874	-0.146136	0.961848	0.000501557	0.212852	0.0888564	-0.264774	0.489449	0.192164	0	0	0.0974108	-0.199777	-0.0926339	1.30896	-0.135369	0	0	-0.282745	0.144643	-0.0173463	0.230092	-0.323421	1.52457	0.410376	0.0481367	0	0	0.390878	-0.205921	1.45086	0.556717	0.0976851	0	0
8.30238	-0.133623	0.071553	-3.02163	-0.144861	0.96489	-0.000950321	0.186379	0.0918223	-0.258235	0.472964	0.198772	0	0	0.122034	-0.195283	-0.0920858	1.3233	-0.117924	0	0	-0.287109	0.139632	-0.0161564	0.263141	-0.313797	1.52696	0.416313	0.0640919	0	0	0.36383	-0.209316	1.44981	0.549791	0.0766564	0	0
8.31237	-0.136421	0.0674901	-3.02502	-0.143543	0.967913	-0.00234105	0.159905	0.0937544	-0.250967	0.455505	0.204608	0	0	0.145711	-0.189448	-0.0923356	1.33213	-0.0997945	0	0	-0.290814	0.133777	-0.0153813	0.296205	-0.304156	1.52862	0.423135	0.0828603	0	0	0.336238	-0.213527	1.44864	0.543989	0.0583686	0	0
8.32236	-0.138886	0.0628319	-3.02904	-0.142185	0.970876	-0.0036785	0.133519	0.0947952	-0.242931	0.43738	0.209805	0	0	0.168279	-0.182597	-0.0936115	1.33553	-0.0816439	0	0	-0.293988	0.12726	-0.0148043	0.329203	-0.294628	1.52974	0.431043	0.103869	0	0	0.308288	-0.218396	1.44748	0.539147	0.0432901	0	0
8.33235	-0.141106	0.0577456	-3.03378	-0.140789	0.973735	-0.00496924	0.107316	0.0950961	-0.234119	0.418892	0.214506	0	0	0.189614	-0.175055	-0.0960526	1.33367	-0.0638821	0	0	-0.296762	0.120272	-0.0142425	0.362063	-0.285339	1.53042	0.440231	0.126362	0	0	0.280173	-0.223765	1.44643	0.535095	0.0314637	0	0
8.34234	-0.143168	0.0524055	-3.03923	-0.13935	0.976448	-0.00621713	0.0813758	0.0948096	-0.224576	0.400324	0.218852	0	0	0.20963	-0.167134	-0.0997049	1.32676	-0.0467333	0	0	-0.299279	0.11301	-0.0135542	0.394714	-0.276428	1.53063	0.450889	0.149644	0	0	0.252099	-0.22948	1.44554	0.531665	0.0226577	0	0
8.35233	-0.145169	0.0469869	-3.04535	-0.13786	0.978978	-0.00742179	0.0557408	0.0940835	-0.214419	0.381923	0.222985	0	0	0.22826	-0.159115	-0.104517	1.31502	-0.0303061	0	0	-0.301702	0.105677	-0.0126485	0.427081	-0.268041	1.53023	0.463199	0.173183	0	0	0.224282	-0.2354	1.44482	0.528705	0.0164831	0	0
8.36232	-0.147212	0.041659	-3.05201	-0.136311	0.981293	-0.0085789	0.030412	0.0930606	-0.203819	0.363881	0.227045	0	0	0.24545	-0.151237	-0.110358	1.29869	-0.0146496	0	0	-0.304203	0.0984688	-0.011476	0.459068	-0.260336	1.52895	0.477335	0.196659	0	0	0.196938	-0.241396	1.44427	0.526082	0.0124816	0	0
8.37231	-0.149385	0.0365811	-3.05905	-0.134693	0.983365	-0.00968174	0.00536495	0.0918806	-0.192983	0.34633	0.23116	0	0	0.261166	-0.143697	-0.117052	1.27798	0.000207228	0	0	-0.306933	0.0915688	-0.0100081	0.490545	-0.253482	1.52639	0.493454	0.21995	0	0	0.17028	-0.247358	1.44388	0.523683	0.0101873	0	0
8.3823	-0.151745	0.0318983	-3.06628	-0.133003	0.985168	-0.0107229	-0.0194234	0.0906806	-0.182132	0.329362	0.235441	0	0	0.275404	-0.136649	-0.124398	1.25312	0.0142354	0	0	-0.310001	0.0851349	-0.00822072	0.521339	-0.24765	1.52205	0.511689	0.243103	0	0	0.144505	-0.253201	1.44363	0.521429	0.00916669	0	0
8.39229	-0.154311	0.0277372	-3.07351	-0.131237	0.986683	-0.0116953	-0.043967	0.0895934	-0.171481	0.313033	0.239985	0	0	0.28819	-0.130207	-0.132191	1.2243	0.0274027	0	0	-0.313469	0.0792959	-0.0060903	0.551234	-0.243012	1.51535	0.532146	0.266313	0	0	0.119801	-0.258868	1.44349	0.519268	0.00904122	0	0
8.40228	-0.157075	0.0242007	-3.08053	-0.129396	0.98789	-0.0125914	-0.0682798	0.0887427	-0.161232	0.297361	0.244869	0	0	0.299571	-0.124433	-0.140218	1.19168	0.0396783	0	0	-0.317358	0.0741513	-0.00360623	0.579984	-0.239733	1.50568	0.554894	0.289918	0	0	0.096336	-0.264331	1.44343	0.517179	0.00949789	0	0
8.41228	-0.160011	0.0213674	-3.08711	-0.127486	0.988779	-0.013403	-0.0923841	0.0882421	-0.151567	0.282328	0.250156	0	0	0.309598	-0.119342	-0.148264	1.15544	0.0510281	0	0	-0.321664	0.0697763	-0.000779439	0.607332	-0.237958	1.49243	0.579957	0.314351	0	0	0.0742513	-0.269584	1.44343	0.515153	0.0102904	0	0
8.42227	-0.163088	0.0192936	-3.09304	-0.125514	0.98934	-0.0141222	-0.11631	0.0881946	-0.142627	0.267895	0.255887	0	0	0.31832	-0.114907	-0.156117	1.11571	0.0614048	0	0	-0.326364	0.0662271	0.00235931	0.633033	-0.237792	1.47515	0.607295	0.340079	0	0	0.0536549	-0.274635	1.44348	0.513184	0.0112347	0	0
8.43226	-0.166276	0.0180117	-3.09816	-0.12349	0.98957	-0.0147418	-0.140091	0.0886866	-0.13451	0.25402	0.262077	0	0	0.325769	-0.111069	-0.163588	1.07265	0.0707479	0	0	-0.331421	0.0635403	0.00576102	0.656887	-0.239283	1.45362	0.636783	0.367508	0	0	0.0346111	-0.279498	1.44356	0.511264	0.0122012	0	0
8.44225	-0.169542	0.0175281	-3.10232	-0.121431	0.989467	-0.0152569	-0.163747	0.0897788	-0.127269	0.240674	0.268722	0	0	0.331979	-0.107747	-0.170517	1.02639	0.0790129	0	0	-0.336782	0.0617319	0.00935506	0.678774	-0.242389	1.42806	0.668184	0.396861	0	0	0.0171335	-0.284191	1.44365	0.509389	0.0131054	0	0
8.45224	-0.172834	0.017819	-3.10547	-0.119351	0.989033	-0.0156644	-0.187255	0.0914963	-0.120929	0.227865	0.27582	0	0	0.337009	-0.10484	-0.176766	0.977139	0.0861872	0	0	-0.342359	0.0607944	0.0130409	0.698677	-0.246968	1.39914	0.701139	0.428056	0	0	0.00118805	-0.288734	1.44375	0.507558	0.0138982	0	0
8.46223	-0.176086	0.0188279	-3.10755	-0.117268	0.988268	-0.0159624	-0.210545	0.0938211	-0.115506	0.215648	0.283369	0	0	0.340953	-0.102225	-0.182205	0.925138	0.0922976	0	0	-0.348038	0.0606906	0.0166984	0.716664	-0.252803	1.36783	0.735198	0.460736	0	0	-0.0132936	-0.293146	1.44384	0.505778	0.0145573	0	0
8.47222	-0.179219	0.0204656	-3.10859	-0.115202	0.987175	-0.0161512	-0.233508	0.0966937	-0.110998	0.204114	0.291374	0	0	0.34394	-0.0997586	-0.186704	0.870708	0.097419	0	0	-0.353682	0.061347	0.0202084	0.73285	-0.259633	1.33521	0.769861	0.494378	0	0	-0.0263983	-0.297445	1.44393	0.504052	0.015079	0	0
8.48221	-0.182145	0.0226159	-3.10863	-0.113171	0.985757	-0.0162327	-0.256002	0.100019	-0.107378	0.193382	0.299844	0	0	0.346132	-0.097292	-0.190122	0.814256	0.101678	0	0	-0.359144	0.0626522	0.0234754	0.747357	-0.267197	1.30228	0.80463	0.528418	0	0	-0.038216	-0.301641	1.44402	0.50238	0.0154719	0	0
8.4922	-0.184774	0.0251411	-3.10775	-0.111197	0.984023	-0.0162108	-0.277873	0.103666	-0.10461	0.183588	0.308774	0	0	0.347717	-0.0946781	-0.1923	0.756292	0.105248	0	0	-0.364275	0.0644589	0.0264412	0.760288	-0.275255	1.2699	0.839046	0.562316	0	0	-0.0488276	-0.305742	1.4441	0.500756	0.0157518	0	0
8.50219	-0.187029	0.0278896	-3.1061	-0.109299	0.981987	-0.0160907	-0.298971	0.107475	-0.10264	0.17487	0.318137	0	0	0.348893	-0.0917831	-0.193059	0.697437	0.108348	0	0	-0.368947	0.0665891	0.0290945	0.771717	-0.283605	1.23869	0.872716	0.595591	0	0	-0.058296	-0.309751	1.44417	0.499171	0.0159378	0	0
8.51218	-0.188857	0.0307034	-3.10382	-0.1075	0.979668	-0.0158786	-0.319181	0.111265	-0.101394	0.167345	0.327887	0	0	0.349845	-0.0884957	-0.192194	0.63842	0.111251	0	0	-0.373063	0.0688417	0.0314731	0.781683	-0.292086	1.20907	0.905316	0.627838	0	0	-0.0666622	-0.313665	1.44423	0.497616	0.0160495	0	0
8.52217	-0.190245	0.033426	-3.1011	-0.105822	0.977095	-0.0155815	-0.338446	0.114843	-0.10077	0.161097	0.33794	0	0	0.350715	-0.0847348	-0.18948	0.580072	0.114291	0	0	-0.376581	0.0710016	0.0336601	0.790187	-0.300581	1.18126	0.936581	0.65874	0	0	-0.0739472	-0.317477	1.44429	0.496078	0.0161054	0	0
8.53217	-0.191231	0.035911	-3.09816	-0.104288	0.974308	-0.0152065	-0.356786	0.11801	-0.100649	0.156167	0.348155	0	0	0.351588	-0.0804571	-0.184693	0.523299	0.117842	0	0	-0.379512	0.0728527	0.0357723	0.797202	-0.309002	1.15534	0.966301	0.688054	0	0	-0.0801597	-0.321175	1.44435	0.494549	0.0161218	0	0
8.54216	-0.1919	0.0380311	-3.09521	-0.102924	0.971356	-0.0147605	-0.374299	0.120576	-0.100886	0.152545	0.358343	0	0	0.352471	-0.0756629	-0.177647	0.469041	0.122255	0	0	-0.381925	0.0741926	0.037944	0.802686	-0.317278	1.13127	0.994299	0.715598	0	0	-0.0853036	-0.324742	1.4444	0.493022	0.0161123	0	0
8.55215	-0.192379	0.0396843	-3.09247	-0.101755	0.968296	-0.0142498	-0.391146	0.122372	-0.101315	0.15019	0.368279	0	0	0.353306	-0.0704018	-0.168255	0.41824	0.127758	0	0	-0.383935	0.0748468	0.0403082	0.806598	-0.325343	1.10898	1.02041	0.74123	0	0	-0.0893875	-0.328159	1.44444	0.491494	0.0160877	0	0
